<svg xmlns="http://www.w3.org/2000/svg" viewBox="0 0 100 100" width="100" height="100"><title>athena</title><style>.k{stroke:#B8321F}@media (prefers-color-scheme: dark){.k{stroke:#E0573D}}</style><g fill="none" class="k" stroke-width="8.54" stroke-linecap="round"><path d="M41.7 30.25 C35.32 38.38 31.46 48.82 31.14 58.41 C30.81 68 34 76.57 39.13 81.42 C44.26 86.27 51.19 87.32 57 84.23 C62.81 81.14 67.35 73.96 68.55 64.98"/><path d="M65.47 42.68 C61.63 33.09 54.51 24.52 46.37 19.45 C38.23 14.38 29.21 12.85 22.45 14.86 C15.68 16.88 11.31 22.36 11.08 28.94 C10.85 35.51 14.8 43.03 21.98 48.56"/><path d="M42.83 57.05 C53.05 58.51 64.03 56.63 72.49 52.12 C80.96 47.61 86.79 40.56 88.43 33.69 C90.06 26.83 87.5 20.3 81.92 16.81 C76.34 13.33 67.86 12.99 59.47 16.44"/></g></svg>
